<svg width="107" height="124" viewBox="0 0 107 124" fill="none" xmlns="http://www.w3.org/2000/svg">
  <path fill-rule="evenodd" clip-rule="evenodd"
    d="M39.343 36.1667C38.6322 36.1667 38.056 36.745 38.056 37.4583C38.056 38.1717 38.6322 38.75 39.343 38.75H42.1127C41.9777 39.2983 41.917 39.9049 41.917 40.5588C41.917 44.0062 43.5418 47.0559 46.0742 49.0833H35.482C34.7712 49.0833 34.195 49.6616 34.195 50.375C34.195 51.0884 34.7712 51.6667 35.482 51.6667H39.7119C39.4574 52.4561 39.3431 53.374 39.3431 54.4055C39.3431 59.1472 41.7055 63.3315 45.3187 65.875H31.621C30.9102 65.875 30.334 66.4533 30.334 67.1667C30.334 67.88 30.9102 68.4583 31.621 68.4583H36.0408C35.6607 69.3934 35.482 70.5163 35.482 71.8173C35.482 80.8169 43.7131 87.8333 53.5002 87.8333C63.2873 87.8333 71.5183 80.8169 71.5183 71.8173C71.5183 70.5163 71.3396 69.3934 70.9595 68.4583H75.3793C76.0901 68.4583 76.6663 67.88 76.6663 67.1667C76.6663 66.4533 76.0901 65.875 75.3793 65.875H61.6817C65.2949 63.3315 67.6573 59.1472 67.6573 54.4055C67.6573 53.374 67.5429 52.4561 67.2884 51.6667H71.5183C72.2291 51.6667 72.8053 51.0884 72.8053 50.375C72.8053 49.6616 72.2291 49.0833 71.5183 49.0833H60.926C63.4585 47.0559 65.0832 44.0062 65.0832 40.5588C65.0832 39.9049 65.0225 39.2983 64.8875 38.75H67.6572C68.368 38.75 68.9443 38.1717 68.9443 37.4583C68.9443 36.745 68.368 36.1667 67.6572 36.1667H39.343ZM53.4836 49.0833H53.5166C58.5474 49.0749 62.5092 45.2 62.5092 40.5588C62.5092 39.5011 62.3134 39.0028 62.1157 38.75H44.8845C44.6869 39.0028 44.4911 39.5011 44.4911 40.5588C44.4911 45.2 48.4528 49.0749 53.4836 49.0833ZM42.5999 51.6667L53.5001 51.6667L64.4004 51.6667C64.7565 52.0478 65.0833 52.795 65.0833 54.4055C65.0833 60.7252 59.9121 65.875 53.5002 65.875C47.0883 65.875 41.9171 60.7252 41.9171 54.4055C41.9171 52.795 42.2439 52.0478 42.5999 51.6667ZM39.1281 68.4583C38.5361 68.9322 38.056 69.8341 38.056 71.8173C38.056 79.0817 44.8066 85.25 53.5002 85.25C62.1938 85.25 68.9443 79.0817 68.9443 71.8173C68.9443 69.8341 68.4642 68.9322 67.8723 68.4583H39.1281Z"
    fill="#F97D00" />
  <path fill-rule="evenodd" clip-rule="evenodd"
    d="M53.5 0L107 31V93L53.5 124L0 93V31L53.5 0ZM3.86103 33.2372L53.5 4.47446L103.139 33.2372V90.7628L53.5 119.526L3.86103 90.7628V33.2372Z"
    fill="#F97D00" />
</svg>